<?xml version="1.0" encoding="utf-8"?><!-- Uploaded to: SVG Repo, www.svgrepo.com, Generator: SVG Repo Mixer Tools -->
<svg width="800px" height="800px" viewBox="0 0 24 24" fill="none" xmlns="http://www.w3.org/2000/svg">
<rect x="3" y="3" width="18" height="18" rx="4" stroke="#000000" stroke-width="2"/>
<path fill-rule="evenodd" clip-rule="evenodd" d="M8 6C7.44772 6 7 6.44772 7 7V17.0522C7 17.5756 7.42436 18 7.94784 18C8.47131 18 8.89567 17.5756 8.89567 17.0522V14H16.5253C16.9069 14 17.132 13.5485 16.9158 13.2167L14.8566 10.0567C14.8343 10.0225 14.8343 9.97747 14.8566 9.94335L16.9158 6.78326C17.132 6.45151 16.9069 6 16.5253 6H8ZM8.89567 12H13.8225L13.2945 11.1897C12.8275 10.4731 12.8275 9.52692 13.2945 8.81029L13.8225 8H8.89567V12Z" fill="#000000"/>
</svg>