<?xml version="1.0" encoding="utf-8"?><!-- Uploaded to: SVG Repo, www.svgrepo.com, Generator: SVG Repo Mixer Tools -->
<svg width="800px" height="800px" viewBox="0 0 24 24" fill="none" xmlns="http://www.w3.org/2000/svg">
<path fill-rule="evenodd" clip-rule="evenodd" d="M4 12C4 11.4477 4.44772 11 5 11C5.55228 11 6 11.4477 6 12C6 12.5523 5.55228 13 5 13C4.44772 13 4 12.5523 4 12ZM5 15C6.65685 15 8 13.6569 8 12C8 10.3431 6.65685 9 5 9C3.34315 9 2 10.3431 2 12C2 13.6569 3.34315 15 5 15ZM12 11C11.4477 11 11 11.4477 11 12C11 12.5523 11.4477 13 12 13C12.5523 13 13 12.5523 13 12C13 11.4477 12.5523 11 12 11ZM15 12C15 13.6569 13.6569 15 12 15C10.3431 15 9 13.6569 9 12C9 10.3431 10.3431 9 12 9C13.6569 9 15 10.3431 15 12ZM19 11C18.4477 11 18 11.4477 18 12C18 12.5523 18.4477 13 19 13C19.5523 13 20 12.5523 20 12C20 11.4477 19.5523 11 19 11ZM22 12C22 13.6569 20.6569 15 19 15C17.3431 15 16 13.6569 16 12C16 10.3431 17.3431 9 19 9C20.6569 9 22 10.3431 22 12Z" fill="#000000"/>
</svg>